PathFileType	4	(X/Y/Z)	Formatted/subject19/trials/walk2/markers.trc
DataRate	CameraRate	NumFrames	NumMarkers	Units	OrigDataRate	OrigDataStartFrame	OrigNumFrames
200.00000000000426	200.00000000000426	4	64	m	200.00000000000426	106	213
Frame#	Time	CLAV			C7			RACR			RASH			RPSH			RLEL			RMEL			RUA1			RUA2			RUA3			RFAsuperior			RFAradius			RFAulna			RASI			RPSI			RCAL			RTOE			RMT5			RTH1			RTH2			RTH3			RTB1			RTB2			RTB3			RLFC			RMFC			RLMAL			RMMAL			RHJC			RKJC			REJC			RAJC			RSJC			LACR			LASH			LPSH			LLEL			LMEL			LUA1			LUA2			LUA3			LFAsuperior			LFAradius			LFAulna			LASI			LPSI			LCAL			LTOE			LMT5			LTH1			LTH2			LTH3			LTB1			LTB2			LTB3			LLFC			LMFC			LLMAL			LMMAL			LHJC			LKJC			LEJC			LAJC			LSJC			
		X1	Y1	Z1	X2	Y2	Z2	X3	Y3	Z3	X4	Y4	Z4	X5	Y5	Z5	X6	Y6	Z6	X7	Y7	Z7	X8	Y8	Z8	X9	Y9	Z9	X10	Y10	Z10	X11	Y11	Z11	X12	Y12	Z12	X13	Y13	Z13	X14	Y14	Z14	X15	Y15	Z15	X16	Y16	Z16	X17	Y17	Z17	X18	Y18	Z18	X19	Y19	Z19	X20	Y20	Z20	X21	Y21	Z21	X22	Y22	Z22	X23	Y23	Z23	X24	Y24	Z24	X25	Y25	Z25	X26	Y26	Z26	X27	Y27	Z27	X28	Y28	Z28	X29	Y29	Z29	X30	Y30	Z30	X31	Y31	Z31	X32	Y32	Z32	X33	Y33	Z33	X34	Y34	Z34	X35	Y35	Z35	X36	Y36	Z36	X37	Y37	Z37	X38	Y38	Z38	X39	Y39	Z39	X40	Y40	Z40	X41	Y41	Z41	X42	Y42	Z42	X43	Y43	Z43	X44	Y44	Z44	X45	Y45	Z45	X46	Y46	Z46	X47	Y47	Z47	X48	Y48	Z48	X49	Y49	Z49	X50	Y50	Z50	X51	Y51	Z51	X52	Y52	Z52	X53	Y53	Z53	X54	Y54	Z54	X55	Y55	Z55	X56	Y56	Z56	X57	Y57	Z57	X58	Y58	Z58	X59	Y59	Z59	X60	Y60	Z60	X61	Y61	Z61	X62	Y62	Z62	X63	Y63	Z63	X64	Y64	Z64	

107	3.25	1.647509982235335	1.399018187760019	-0.4757285392969157	1.534519642728053	1.481195358423191	-0.4983629064324128	1.583030255938981	1.42870726050222	-0.3091902083495545	1.643663591137245	1.387458585660122	-0.2942346232958465	1.549566035669507	1.406909792398309	-0.2887384293923998	1.581575761940414	1.111079543285178	-0.2248699889627564	1.552480949489695	1.102176480869196	-0.2812574213232671	1.590684211888074	1.332674035967952	-0.2606091423961232	1.628197183634041	1.249444526003151	-0.2792462458088887	1.559024747848328	1.216353629508116	-0.2450906456986111	1.658166504603503	1.100686415028458	-0.2817425004231136	1.828395021307192	1.001500303235466	-0.2717255523060947	1.781251750684403	0.9503399605568309	-0.264627789060975	1.606869716279781	0.9724809064867771	-0.3617364439870122	1.446059539261302	0.9987747233413742	-0.4521848689758638	1.186405883996031	0.08420797372847422	-0.4351596456527638	1.393371210020259	0.04455298564894078	-0.4490258401513467	1.372892669459248	0.01537652992621287	-0.3442628830583893	1.535914104186519	0.8048370887310609	-0.3127859341323909	1.553399134186324	0.6471116661156401	-0.3439200479031409	1.464547279251685	0.5802170652853436	-0.3533846448513013	1.440645394836862	0.3461000078992909	-0.4115744477011399	1.372185019052272	0.3123459162778973	-0.3500841215367486	1.355526071915872	0.1871226930758731	-0.412383959948436	1.441753590602964	0.4860047422130198	-0.3615117765446978	1.434337383088948	0.4900166635234371	-0.4744576806649805	1.270760508317447	0.07727819714752543	-0.3663227696604907	1.272634635898289	0.0778193201041722	-0.4677103967776506	1.542012481212893	0.866248356735369	-0.4113760879026214	1.4391757561648	0.4871467867441792	-0.4198970869962844	1.573125185188226	1.101247803575519	-0.2541261993384198	1.255079495021978	0.07071063295091734	-0.4241233762941053	1.599583591278383	1.396570503456625	-0.2916599312617769	1.557761698156492	1.44547326519723	-0.6799436599029759	1.622624762467815	1.397533007482264	-0.6900834684327997	1.520999402562658	1.418540310759506	-0.6841475790170772	1.444024272216401	1.150040556208464	-0.7186110860452281	1.431675505651495	1.157075058290449	-0.6551362886447462	1.523239133896038	1.359648999958654	-0.7183648624594576	1.463888810914059	1.306620074069965	-0.6828123759686545	1.517073460483155	1.245236515061384	-0.720311086348414	1.474237423566724	1.076756528139204	-0.671745813919538	1.478811827821459	0.8753156291844394	-0.7076743734676444	1.412687049814203	0.8866471423271562	-0.7240025394457752	1.630509078976526	0.971039205429118	-0.595926607340877	1.455413011338012	1.000405397461568	-0.5492206543959016	1.812884622950674	0.06144678034102898	-0.5651303147425961	2.01050367006605	0.1244122631396146	-0.5412913822671775	2.00965051759123	0.09017114109915475	-0.6486869615776731	1.591045843060797	0.8064236312963781	-0.6694773639658118	1.697045824627896	0.7413029654322891	-0.6512502881511313	1.672694954264163	0.5986623986200701	-0.6415258055312807	1.820433748436215	0.4051655855952374	-0.5921193678921921	1.814132401229843	0.300350120949942	-0.6394469954834267	1.874503054562653	0.2188758299005312	-0.5782373848800354	1.732371771650803	0.5124529979313197	-0.6234392418230597	1.72574159188348	0.5080277116787011	-0.510459905385482	1.884504896156943	0.09655457893081254	-0.629812216945149	1.887700536920783	0.09633392897554088	-0.528456431247452	1.55855811930205	0.8635561888639572	-0.5631162391403252	1.730165897953656	0.5103476015793662	-0.5651517810943862	1.43903260708234	1.142333676881438	-0.6870110003895646	1.878735448822012	0.07999174711931117	-0.5721726187118471	1.578544762608953	1.406644925278768	-0.6875087763987301	
108	3.255	1.653996366992696	1.398400780380647	-0.4766235925602841	1.5409515277125	1.480458305089425	-0.4994193317801991	1.589488193447471	1.428362032117669	-0.3101450331044575	1.650148703525241	1.387182885833325	-0.2951082626336993	1.556037719208151	1.406580735316544	-0.2896535763645585	1.587904313913145	1.110851589123753	-0.2254934131416929	1.558804971758891	1.10191055098444	-0.281872498655007	1.597129359957385	1.332407395421988	-0.261441895125489	1.634598616912414	1.249140602397959	-0.2800002346132798	1.565408703926785	1.216118364576501	-0.2458135987365069	1.664471149941513	1.100226972970248	-0.2823860378066412	1.834543508097564	1.000789143815478	-0.2722133761315749	1.787320404378296	0.9497189174877109	-0.2649982996217586	1.613492705837807	0.9717744763251501	-0.3618569611756395	1.452777575855708	0.9979347752317198	-0.452512800350055	1.187446554388456	0.08672508716261701	-0.4352005341146822	1.393933182262452	0.04448099983999627	-0.4485476387175532	1.372859332203701	0.01570461313078036	-0.3437920862032686	1.542083677323354	0.8043020125386999	-0.3129568906173734	1.559248579060715	0.6464630548431884	-0.343691201013711	1.470244962604203	0.5798108956791918	-0.3534361626555743	1.44473549560542	0.3455606057817531	-0.4113876711507107	1.375734257399827	0.3127129035164309	-0.350011132086182	1.357724932323238	0.1876103635326123	-0.4121775596399873	1.447211696212719	0.4856497015163876	-0.3614799480601062	1.440334584433098	0.4894543521025819	-0.4744671281803641	1.271546397084604	0.07885088309350735	-0.3661636184113418	1.273662053505294	0.07922741633526359	-0.4675472380020784	1.548823227434465	0.8654950258668921	-0.411640962507451	1.444970466090588	0.4866030680977764	-0.4199075653922235	1.57944864557362	1.100996655387785	-0.2547403472151956	1.255922165367149	0.0723900485839577	-0.4239916237836746	1.6060624129219	1.396269808423739	-0.2925530148509202	1.564226880708193	1.444407574592542	-0.6809308572806125	1.629122910006741	1.396492118952614	-0.6909765344978887	1.527483046944284	1.417441796394491	-0.6850854733272166	1.451035113475762	1.148659694962286	-0.719161553278972	1.438594815688514	1.155801386289777	-0.6557166055195511	1.52985719218144	1.358416284686582	-0.7192487547942022	1.470562350783258	1.305349354125035	-0.6836604171118598	1.523908059647695	1.243988690402619	-0.7209673312135083	1.481262522462357	1.075496417013479	-0.6721014177730801	1.486076483134147	0.8739859665517333	-0.7076061565349118	1.419963045415923	0.885220695071518	-0.7240467370899603	1.637455617171613	0.9704813974660004	-0.5960151073286827	1.462262605347076	0.9996265328324232	-0.5495347687996182	1.816847688436525	0.06037646281866166	-0.5645718488511996	2.014911833529821	0.1216398941395471	-0.5400031508867489	2.01415428662551	0.08742786881521361	-0.6474087196858891	1.598293134264664	0.8057102013413626	-0.6696206753868205	1.704343273747053	0.7407320783395241	-0.6511779273679964	1.680147361560308	0.5980715562066852	-0.6413598313996651	1.827234311387321	0.4039872411126283	-0.5914613975375839	1.820267346085158	0.2992328580260922	-0.6388309400462119	1.879772717894904	0.2172715341771352	-0.5774245524732277	1.739899655825232	0.5119495561091824	-0.6231068448887646	1.733107773589925	0.5076188404740362	-0.5101334491629158	1.888984226460063	0.09488308306508164	-0.6289871718885106	1.891820734169245	0.09462054197651215	-0.5276207997679484	1.565580478382115	0.8629005373618406	-0.5633595921326261	1.737710403393821	0.5098787071420225	-0.5647919510746102	1.446018855178737	1.141008388077384	-0.6875518588978526	1.882880249902678	0.0783572229727304	-0.5713714221055041	1.5850366194034	1.405579041543028	-0.6884212867151096	
109	3.26	1.66049667214403	1.397849282444005	-0.4775433055488251	1.547382324225454	1.47976408984934	-0.5005069158595287	1.595955356754196	1.428085844182359	-0.3111273785458185	1.656650587163528	1.38698884767233	-0.2960062039483987	1.56252271438834	1.406316554992174	-0.2905941033787139	1.594112860212186	1.110701799825443	-0.2261615253703812	1.565018014224875	1.101738111555566	-0.2825393347434989	1.603555773145635	1.332216695153329	-0.2623050265722035	1.640950491628916	1.248898010583659	-0.2807806275894578	1.571721520812204	1.215971678422468	-0.2465805607424965	1.670664170958514	1.099775643606361	-0.2830532955136719	1.840492115889074	0.9999425813722532	-0.2726705826238599	1.793143902080128	0.9490037426208255	-0.2653474530434853	1.62020597734828	0.9711068463877178	-0.3619772961428144	1.459580249833447	0.997128857393478	-0.4528311679590908	1.18860225767918	0.08945023608355251	-0.4352356523348204	1.394532590729748	0.0444233195983399	-0.4480696044654551	1.372844433729576	0.01607274994258798	-0.3433233280779848	1.548354382796662	0.803818319832547	-0.3131269071079098	1.565280672570097	0.6458711570066644	-0.3434347068194864	1.476161875091724	0.5794166683097051	-0.3534725954917403	1.449034113859345	0.3450230826157268	-0.4111819806797281	1.379483562217419	0.3131261511561256	-0.3499240955111952	1.36006010034606	0.1881704101073832	-0.4119598748873839	1.452936246563386	0.4852950219176829	-0.3614255943210711	1.446623241571929	0.488870556539896	-0.4744531769024181	1.272421943461618	0.08056040765450084	-0.3660002389157791	1.274781172037371	0.08076715015104496	-0.4673789713933517	1.555729139753099	0.8647796145852144	-0.4119089194512629	1.451050362986247	0.4860394332702683	-0.4198965416391794	1.585654585464048	1.100828839939156	-0.2554016254057252	1.256854642578895	0.07421336754563757	-0.4238561930583419	1.612556385161991	1.396042912166311	-0.2934709054365299	1.570696739212043	1.443372726162269	-0.6819454393840236	1.635634395129926	1.395493230006312	-0.6918930939013446	1.533976292532722	1.416367153911744	-0.686048025286085	1.458164052479576	1.147263966352713	-0.7197718117257059	1.445614338272323	1.154506387979906	-0.6563598399653321	1.536512730114145	1.357197481230703	-0.7201701485706655	1.477285468674643	1.304069126175539	-0.6845609291722926	1.530824314187444	1.242753484337437	-0.7216646437252918	1.488417161703695	1.074230365640263	-0.6725096268956953	1.49354595575149	0.8726539572263934	-0.7075933749818277	1.427445042298726	0.8837704018469443	-0.7241642035830255	1.644481067756884	0.9699788572033742	-0.5961041382784649	1.469191978448282	0.998888489021917	-0.5498394591492085	1.820056694523491	0.05924131566968314	-0.5640047793935106	2.018665028981868	0.1184085463565662	-0.5387025501452746	2.017938019519109	0.08422435585169447	-0.6461171922567652	1.60558486640588	0.8050217083936202	-0.6697677699146363	1.711691306767542	0.7401891360480946	-0.6511375690461225	1.687652341323917	0.5975114588809916	-0.6411841611469937	1.833928621421146	0.4026898867621739	-0.590791508022062	1.826099463951007	0.298015400057651	-0.6382029946607599	1.884579114187646	0.2154648214817197	-0.5766008453392247	1.74748602218475	0.5114804135241852	-0.6227695757120022	1.740577648210442	0.5072693384116019	-0.5097987205348049	1.892768998448181	0.09299863011012427	-0.6281512705882332	1.895244956324706	0.09269464679295514	-0.5267755667562583	1.572690750292982	0.8622935585309237	-0.5636066541029534	1.745356416734919	0.5094527723897744	-0.5644202573044086	1.45311856646089	1.139665567089273	-0.688154007837931	1.886299519836668	0.07652586421045998	-0.5705602032706958	1.591540193128389	1.404547294500293	-0.6893577953894757	
110	3.265	1.667010656493626	1.397357503698031	-0.4784887260135562	1.553813788643344	1.479109104956456	-0.5016266510797492	1.602431406164817	1.427873014828896	-0.3121384455038184	1.663167880986619	1.386869385492284	-0.2969296636578158	1.569020109245138	1.40611222838834	-0.2915614601043298	1.600203794155274	1.110623868109854	-0.2268769628733715	1.571121764203186	1.101652847423004	-0.2832602182054155	1.609963335548351	1.332095654090251	-0.2632000891480823	1.647253112268627	1.248710992680015	-0.2815899449241589	1.577964387718565	1.215907037293439	-0.247393285972033	1.676746802932072	1.099327892308557	-0.2837474583678255	1.846242261786904	0.9989587427322956	-0.2731034383444927	1.798724616808258	0.9481921906692437	-0.2656820181026914	1.626997062222951	0.9704921214951511	-0.3620894671754862	1.466459977673207	0.9963500665546819	-0.4531466282449392	1.189887661583869	0.09239972466101572	-0.4352637945913245	1.39517146231891	0.0443804020063668	-0.4475983563322269	1.372851687383506	0.01648069749186586	-0.342863703491123	1.554732283051091	0.8033891650062116	-0.3132884253515226	1.571502721382284	0.6453394785738027	-0.343145037188669	1.482305905801897	0.5790363448560885	-0.3534862600608156	1.453548449291842	0.3444921951211183	-0.4109535568838409	1.383442667881458	0.3135894871250425	-0.3498190820197794	1.362540604903121	0.1888107583484713	-0.4117304591896679	1.458936161184171	0.4849421438801099	-0.3613412399879045	1.453208913102654	0.4882684060125009	-0.4744076254155787	1.273398815575026	0.08241568299532764	-0.3658340906553454	1.276001780090181	0.08245000260304558	-0.4672070628845797	1.562732566618226	0.8641071270780768	-0.4121715735891036	1.457422428116925	0.4854580065063068	-0.419855932620722	1.591745069604685	1.100738113844555	-0.256112609613123	1.257887869283787	0.07619109402456797	-0.4237184775136207	1.619064357314323	1.395883695246942	-0.2944149287031853	1.577173081714544	1.442365616528124	-0.682988418277941	1.642159971874916	1.394531881944582	-0.6928341829373569	1.540480378394116	1.415314152272322	-0.6870365230995921	1.465407759613381	1.145852860053774	-0.7204423706128918	1.452731943156464	1.153189067534785	-0.6570662718279846	1.543205619589188	1.355990375697727	-0.7211294881622162	1.484057946214657	1.302777841517419	-0.6855136762924683	1.537820190447723	1.241529062073948	-0.7224041853456329	1.495699294363404	1.072957983821222	-0.6729721001216962	1.501220014143968	0.8713199015173299	-0.7076394876076972	1.435132614642437	0.8822958728820164	-0.7243572069661641	1.651592287591397	0.9695356169716068	-0.5961836588388625	1.476201330460139	0.9981801434680674	-0.5501406850444737	1.822505666159642	0.05805568443357115	-0.5634671736239046	2.021739877207233	0.1147305802834065	-0.5373919011024185	2.02099527924716	0.08058346643268111	-0.6448182151633383	1.612951908319615	0.8043681309812409	-0.6699101250192938	1.719115249676169	0.7396777581982592	-0.6511105471311458	1.695227962500686	0.5969855594057194	-0.6410013599554811	1.840515857824724	0.4012723931923188	-0.5901107187218235	1.831634915457079	0.296706330563146	-0.6375760781719899	1.888914900770948	0.2134634542847178	-0.575778674121411	1.755142552232942	0.51104452063939	-0.6224302296650767	1.748143565715315	0.5069649784000752	-0.5094601255362244	1.895858451372467	0.09091989295174357	-0.6273281771015037	1.89795656493273	0.090566754687608	-0.5259441087596465	1.579903981293098	0.8617338549787468	-0.563847509395917	1.753104850237685	0.5090612982950161	-0.5640404340224827	1.460328818749155	1.138304470011011	-0.6888179450738053	1.888983794066319	0.07451267835866321	-0.5697653453358344	1.598056448202619	1.40354619169924	-0.6903194479827264	
